# xmcd CD database file
#
# Track frame offsets:
#	150
#	19185
#	38809
#	59857
#	79983
#	109683
#	129510
#	149930
#	178256
#	207219
#	226992
#
# Disc length: 3322 seconds
#
# Revision: 0
# Processed by: cddbd v1.5.2PL0 Copyright (c) Steve Scherf et al.
# Submitted via: CDex 1.51
#
DISCID=a70cf80b
DTITLE=Pieces Of A Dream - Soul Intent
DYEAR=1900
DGENRE=Jazz
TTITLE0=Sway On
TTITLE1=Vision Accomplished
TTITLE2=Give U My Heart
TTITLE3=APB
TTITLE4=Hindsight
TTITLE5=Soul Intent
TTITLE6=Step On It
TTITLE7=Things Are Looking Up
TTITLE8=D Fuse The Situation
TTITLE9=Stand Up
TTITLE10=Anywhere You Are
EXTD=
EXTT0=
EXTT1=
EXTT2=
EXTT3=
EXTT4=
EXTT5=
EXTT6=
EXTT7=
EXTT8=
EXTT9=
EXTT10=
PLAYORDER=
